<svg xmlns="http://www.w3.org/2000/svg" xml:space="preserve" width="128" height="128" viewBox="0 0 28 28"><path fill="#DEFF8F" d="M13.518 2.935c-10.414 1.254-11.163 2.218-11 11.438.166 9.377 13.569 9.994 18.317 8.515 5.6-1.745 3.848-14.106 3.844-15.857-.01-3.684-6.765-4.625-11.161-4.096z"/><path d="M23.5 25h-19A2.502 2.502 0 0 1 2 22.5v-17C2 4.121 3.121 3 4.5 3h19C24.879 3 26 4.121 26 5.5v17c0 1.379-1.121 2.5-2.5 2.5zM4.5 4C3.673 4 3 4.673 3 5.5v17c0 .827.673 1.5 1.5 1.5h19c.827 0 1.5-.673 1.5-1.5v-17c0-.827-.673-1.5-1.5-1.5h-19z"/><path d="M25.5 8h-23a.5.5 0 0 1 0-1h23a.5.5 0 0 1 0 1zM10.5 19a.5.5 0 0 1-.5-.5V15a1 1 0 0 0-2 0v3.5a.5.5 0 0 1-1 0V15c0-1.103.897-2 2-2s2 .897 2 2v3.5a.5.5 0 0 1-.5.5z"/><path d="M10.5 17h-3a.5.5 0 0 1 0-1h3a.5.5 0 0 1 0 1zM19.5 19a.5.5 0 0 1-.5-.5v-5a.5.5 0 0 1 1 0v5a.5.5 0 0 1-.5.5zM13.5 19a.5.5 0 0 1-.5-.5v-5a.5.5 0 0 1 .5-.5H15c1.103 0 2 .897 2 2s-.897 2-2 2h-1v1.5a.5.5 0 0 1-.5.5zm.5-3h1a1 1 0 0 0 0-2h-1v2z"/></svg>