<svg xmlns="http://www.w3.org/2000/svg" width="128" height="128" viewBox="0 0 24 24"><path fill="#FFF" d="M0 0h24v24H0Z"/><path fill="#FFAB65" d="M21.5 6c0-.8-1.667-.667-2.5-.5-.167.333-.5 1.1-.5 1.5 0 .5 1 1 2 1.5s1-1.5 1-2.5Z"/><path fill="#FF7D67" d="M8.5 16c-2.8 0-3.167 1-3 1.5.167.5.6 1.7 1 2.5.5 1 2 1.5 4 1.5s1-1.5 1-3 2.5-3 3.5-3.5 0-1.5-1.5-2.5S12 16 8.5 16Z"/><path fill-rule="evenodd" d="M11.746 3.351a.5.5 0 0 1 0 .708l-.246.245.058.061a2.5 2.5 0 0 1-.064 3.47l-4.222 4.221a2.44 2.44 0 0 1-3.486-.037l-1.154 1.153a.5.5 0 0 1-.707-.707l9.114-9.114a.5.5 0 0 1 .707 0Zm-7.253 7.96a1.44 1.44 0 0 0 2.072.038l4.222-4.221a1.5 1.5 0 0 0 .038-2.082l-.032-.035-6.3 6.3ZM20.178 5.08a.5.5 0 0 1 .707 0l1.737 1.738a.5.5 0 0 1 0 .707l-1.66 1.659a.5.5 0 0 1-.706 0l-.401-.401a.507.507 0 0 1-.06.07l-.948.95.298.297a.5.5 0 1 1-.707.707l-.298-.298-1.904 1.905a3.503 3.503 0 0 1 .448 3.877c-.206.4-.543.635-.872.784-.305.137-.644.218-.917.283l-.037.009a2.25 2.25 0 0 0-1.072.6 2.252 2.252 0 0 0-.66 1.492c-.023.483-.073 1.095-.392 1.627a3.5 3.5 0 0 1-5.476.674l-.184-.184-.298.297a.5.5 0 1 1-.707-.707l.298-.297-.185-.185a3.503 3.503 0 0 1-.238-4.688c.284-.348.66-.508 1.011-.586.326-.072.672-.083.95-.091l.04-.001a2.252 2.252 0 0 0 1.53-.662c.402-.402.621-.917.657-1.444.02-.3.102-.646.325-.943a3.5 3.5 0 0 1 5.072-.562l1.904-1.905-.297-.297a.5.5 0 0 1 .707-.707l.297.297.949-.948a.501.501 0 0 1 .07-.06l-.64-.64a.5.5 0 0 1 0-.707l1.66-1.66ZM7.438 20.526l-.01-.01-.01-.01-.529-.528a2.503 2.503 0 0 1-.17-3.349c.093-.114.233-.193.453-.242.231-.05.494-.06.805-.069a3.252 3.252 0 0 0 2.205-.954c.58-.58.896-1.324.948-2.083.012-.183.058-.32.127-.41a2.5 2.5 0 0 1 3.562-.453l-2.891 2.89a.5.5 0 0 0 .707.707l2.89-2.89c.632.786.711 1.853.27 2.71-.068.13-.188.236-.394.33-.216.096-.472.158-.776.23a3.25 3.25 0 0 0-1.546.866 3.252 3.252 0 0 0-.952 2.151c-.023.483-.073.864-.25 1.16a2.5 2.5 0 0 1-3.912.482l-.528-.528ZM20.531 6.141l-.952.952 1.03 1.03.951-.952-1.03-1.03Z"/></svg>