<svg xmlns="http://www.w3.org/2000/svg" xml:space="preserve" width="128" height="128" viewBox="0 0 24 24"><path fill="#F59A02" d="M11.585 5.274c-3.625 0-6.814 3.222-6.814 6.877 0 3.619 3.188 6.804 6.813 6.804a6.747 6.747 0 0 0 4.782-1.986l.019.677c-.018 2.066 2.682 3.447 4.498 2.029 4.011-3.123 4.25-11.154.139-15.443C17.09.13 10.567-.684 5.62 2.256-.847 6.1-.977 13.519 1.462 17.736c3.608 6.245 11.334 6.365 14.11 5.182 1.837-.78 1.02-3.169-.749-2.454-3.493 1.406-9.37-.004-11.424-4.739-1.886-4.342.054-8.964 3.086-11.052 2.852-1.964 8.213-2.539 12.209.954 4.288 3.748 2.467 10.214.946 11.777-.389.397-1.092.078-1.029-.542l-.005-9.464c0-.267-.182-1.108-1.073-1.108h-.145c-.569 0-.979.458-.979 1.067v-.005c-1.266-1.268-2.99-2.078-4.824-2.078zm-.025 11.452c-2.414 0-4.256-1.732-4.256-4.476 0-2.448 1.523-4.605 4.268-4.605h.09c2.378 0 4.347 1.594 4.484 4.244l.006.535c-.128 2.331-1.899 4.302-4.592 4.302z"/></svg>