<svg enable-background="new 0 0 28 28" viewBox="0 0 28 28" xmlns="http://www.w3.org/2000/svg" width="128" height="128"><path d="m13.604 24.604c-7.048.179-11.219-1.448-11.423-9.459s4.256-12.754 11.304-12.933 10.36 3.745 10.563 11.756-3.396 10.457-10.444 10.636z" fill="#ffab66" style="stroke: currentColor; stroke-width: 1px; stroke-linecap: round;"/><path d="m10.564 25.5c-.089 0-.187-.008-.292-.028-4.973-1.617-8.272-6.109-8.272-11.193 0-6.495 5.383-11.779 12-11.779s12 5.284 12 11.779c0 5.091-3.312 9.577-8.24 11.162-.571.114-.893-.044-1.073-.193-.235-.194-.37-.493-.37-.819l.004-.624c.004-.579.011-1.456.011-2.465 0-1.114-.458-1.586-.598-1.704-.153-.129-.215-.337-.157-.528.059-.192.226-.33.425-.352 2.374-.257 4.801-1.061 4.801-5.067 0-1.036-.352-1.939-1.045-2.687-.132-.142-.17-.348-.097-.528.101-.25.379-1.116-.011-2.321-.356.028-1.172.202-2.511 1.096-.121.08-.271.104-.409.066-.864-.235-1.788-.357-2.747-.363-.954.005-1.877.127-2.74.363-.14.038-.288.015-.408-.066-1.341-.889-2.16-1.066-2.528-1.093-.422 1.309-.051 2.196-.004 2.299.084.184.048.401-.09.548-.696.745-1.049 1.648-1.049 2.686 0 4.008 2.423 4.815 4.793 5.077.198.022.364.159.423.35.059.19 0 .397-.152.527-.166.142-.458.487-.559 1.2-.024.171-.136.318-.294.388-.614.27-2.716.984-3.98-1.141-.004-.007-.088-.151-.246-.323.197.268.4.614.577 1.054.036.107.622 1.784 3.306 1.21.149-.031.301.006.417.1.117.094.186.236.187.387l.014 1.92c0 .325-.135.624-.371.819-.143.119-.374.243-.715.243zm3.436-22c-6.065 0-11 4.835-11 10.779 0 4.65 3.021 8.759 7.518 10.226.055.008.11-.01.121-.017l.005-.623-.005-.755c-3.088.375-3.848-1.931-3.856-1.956-.417-1.032-.994-1.333-1.019-1.346-.281-.183-.865-.574-.698-1.11.15-.485.774-.517 1.001-.526 1.437.098 2.162 1.364 2.192 1.417.7 1.177 1.771 1.067 2.471.82.062-.279.152-.538.269-.77-2.281-.406-4.836-1.62-4.836-5.951 0-1.192.374-2.246 1.112-3.134-.164-.537-.355-1.647.208-3.061.055-.14.171-.247.314-.292.193-.06 1.245-.284 3.4 1.093.883-.221 1.819-.335 2.785-.341.971.005 1.906.12 2.79.34 2.143-1.377 3.193-1.152 3.386-1.093.144.045.259.152.314.292.549 1.38.378 2.494.216 3.057.739.892 1.113 1.946 1.113 3.14 0 4.329-2.556 5.539-4.839 5.942.239.476.369 1.062.369 1.709 0 1.013-.006 1.892-.011 2.473l-.004.616c.017.054.078.068.197.044 4.454-1.435 7.487-5.538 7.487-10.194 0-5.944-4.935-10.779-11-10.779z" style="stroke: currentColor; stroke-width: 1px; stroke-linecap: round;"/></svg>