<svg xmlns="http://www.w3.org/2000/svg" xml:space="preserve" width="128" height="128" viewBox="0 0 28 28"><path fill="#DEFF8F" d="M25.251 5.332c-1.244-2.674-15.817-2.19-18.142-.444-4.356 3.27-6.83 14.513-.997 16.603 4.241 1.519 8.287 1.284 11.394.287 2.474-.795 10.252-11.054 7.745-16.446z"/><path fill="#FFA0C6" d="M22.076 15.109C19.261 13.333 8.209 16.21 8.85 19.452c1.551 7.851 10.422 7.99 15.402 5.394 4.237-2.21 1.407-7.475-2.176-9.737z"/><path d="M15.5 26A6.508 6.508 0 0 1 9 19.5v-3a.5.5 0 0 1 .5-.5h12a.5.5 0 0 1 .5.5v3c0 3.584-2.916 6.5-6.5 6.5zM10 17v2.5c0 3.033 2.468 5.5 5.5 5.5s5.5-2.467 5.5-5.5V17H10z"/><path d="M23.5 22h-2.1a.5.5 0 0 1 0-1h2.1c.402 0 .776-.156 1.052-.439.292-.285.448-.658.448-1.061 0-.827-.673-1.5-1.5-1.5h-1.75a.5.5 0 0 1 0-1h1.75c1.379 0 2.5 1.122 2.5 2.5 0 .675-.263 1.303-.741 1.769A2.44 2.44 0 0 1 23.5 22zM13.092 14a.5.5 0 0 1-.293-.905c.314-.228.474-.513.448-.803-.029-.33-.29-.637-.714-.842-.75-.361-1.215-.964-1.276-1.654-.057-.646.256-1.266.858-1.702a.5.5 0 0 1 .586.81c-.314.228-.474.513-.448.803.029.33.29.637.714.842.75.361 1.215.964 1.276 1.654.057.646-.256 1.266-.858 1.702a.502.502 0 0 1-.293.095zM17.842 14a.5.5 0 0 1-.293-.905c.314-.228.474-.513.448-.803-.029-.33-.29-.637-.714-.842-.75-.361-1.215-.964-1.276-1.654-.057-.646.256-1.266.858-1.702a.499.499 0 1 1 .586.81c-.314.228-.474.513-.448.803.029.33.29.637.714.842.75.361 1.215.964 1.276 1.654.057.646-.256 1.266-.858 1.702a.502.502 0 0 1-.293.095zM22 26H9a.5.5 0 0 1 0-1h13a.5.5 0 0 1 0 1z"/><path d="M3.499 22.724A1.5 1.5 0 0 1 2 21.22V5.11c0-.561.324-1.086.826-1.337C7.601 1.368 11.168 1.378 14 3.825c2.831-2.446 6.398-2.457 11.175-.051.501.25.825.775.825 1.336v9.39a.5.5 0 0 1-1 0V5.11a.497.497 0 0 0-.273-.442c-4.545-2.29-7.844-2.228-10.382.194a.497.497 0 0 1-.689 0c-2.539-2.423-5.837-2.483-10.382-.195A.498.498 0 0 0 3 5.11v16.11a.502.502 0 0 0 .611.492c1.207-.279 2.19-.459 3.089-.568a.514.514 0 0 1 .556.437.501.501 0 0 1-.437.557c-.861.104-1.811.279-2.987.551-.11.023-.223.035-.333.035z"/><path d="M14 7a.5.5 0 0 1-.5-.5v-2a.5.5 0 0 1 1 0v2a.5.5 0 0 1-.5.5z"/></svg>